# xmcd
#
# Track frame offsets:
#	150
#	22891
#	32277
#	42756
#	56957
#	66118
#	83481
#	95514
#	112388
#	129480
#	144375
#	157208
#	165573
#	178870
#	190334
#	203633
#	210972
#	224976
#
# Disc length: 3258 seconds
# Revision: 2
# Processed by: cddbd v1.5.2PL0 Copyright (c) Steve Scherf et al.
# Submitted via: dBpowerAMP V12.0
#
DISCID=050cb812
DTITLE=Various Artist - Hank Williams: The Unreleased Recordings [Time-Life 2008], Disc 3 of 3
DYEAR=1951
DGENRE=Country
TTITLE0=Hank Williams (Luke the Drifter) - Pictures from Life's Other Side [1951]
TTITLE1=Hank Williams - I'll Fly Away [Brumley 1929]
TTITLE2=Hank Williams - Cold, Cold Heart [Williams 1951]
TTITLE3=Hank Williams - Have I Told You Lately That I Love You? [Wiseman 1945]
TTITLE4=Hank Williams - When God Dips His Love in My Heart [Derricks 1946]
TTITLE5=Hank Williams - Thy Burdens Are Greater Than Mine [King 1949]
TTITLE6=Hank Williams - When the Saints Go Marchin' In
TTITLE7=Hank Williams - I'll Sail My Ship Alone [1949]
TTITLE8=Hank Williams - Wedding Bells [Boone 1947]
TTITLE9=Hank Williams - Mind Your Own Business [Williams 1949]
TTITLE10=Hank Williams - You Blotted My Happy Schooldays
TTITLE11=Hank Williams - Where the Soul Never Dies [Golden 1914]
TTITLE12=Hank Williams - Pins and Needles (In My Heart) [Rose (Jenkins) 1942]
TTITLE13=Hank Williams - Tennessee Border [Work 1948]
TTITLE14=Hank Williams - There's Nothing as Sweet as My Baby [Williams 1951]
TTITLE15=Hank Williams - Wait for the Light to Shine [Rose 1944]
TTITLE16=Hank Williams - If I Didn't Love You [Williams and Rose]
TTITLE17=Hank Williams - The Pale Horse and His Rider [1948]
EXTD=
EXTT0=
EXTT1=
EXTT2=
EXTT3=
EXTT4=
EXTT5=
EXTT6=
EXTT7=
EXTT8=
EXTT9=
EXTT10=
EXTT11=
EXTT12=
EXTT13=
EXTT14=
EXTT15=
EXTT16=
EXTT17=
PLAYORDER=
